<?xml version="1.0" encoding="UTF-8"?>
<svg xmlns="http://www.w3.org/2000/svg" xmlns:xlink="http://www.w3.org/1999/xlink" viewBox="0 0 250 250" width="250px" height="250px">
<g id="surface83316993">
<path style="fill-rule:nonzero;fill:rgb(5.098039%,95.294118%,43.137255%);fill-opacity:1;stroke-width:2;stroke-linecap:butt;stroke-linejoin:round;stroke:rgb(5.490196%,96.470588%,44.313726%);stroke-opacity:1;stroke-miterlimit:10;" d="M 141.040758 13.760869 C 150.497279 13.760869 158.239127 21.502717 158.239127 30.959238 L 158.239127 141.040758 C 158.239127 150.497279 150.497279 158.239127 141.040758 158.239127 L 30.959238 158.239127 C 21.502717 158.239127 13.760869 150.497279 13.760869 141.040758 L 13.760869 30.959238 C 13.760869 21.502717 21.502717 13.760869 30.959238 13.760869 Z M 20.641304 30.959238 L 20.641304 141.040758 C 20.641304 146.779888 25.220108 151.358692 30.959238 151.358692 L 141.040758 151.358692 C 146.779888 151.358692 151.358692 146.779888 151.358692 141.040758 L 151.358692 30.959238 C 151.358692 25.220108 146.779888 20.641304 141.040758 20.641304 L 30.959238 20.641304 C 25.220108 20.641304 20.641304 25.220108 20.641304 30.959238 Z M 61.872281 49.584238 C 61.877716 49.644021 61.877716 49.706521 61.880433 49.766303 C 61.880433 56.402173 55.97826 61.880433 48.160325 61.880433 C 47.804347 61.874999 47.448369 61.812499 47.111412 61.698368 C 47.108695 61.695651 47.10326 61.692933 47.097825 61.690216 C 40.010869 61.195651 34.440217 56.190216 34.440217 49.766303 C 34.440217 46.385869 35.980977 43.230977 38.491847 41.119564 C 41.002716 39.005434 44.391303 37.880434 48.160325 37.880434 C 55.695651 37.880434 61.521738 43.048912 61.872281 49.584238 Z M 42.866847 46.317934 C 41.763586 47.247282 41.23913 48.328803 41.23913 49.766303 C 41.23913 52.638586 43.394021 55.081521 48.160325 55.081521 C 53.182064 55.081521 55.005434 52.798912 55.046194 49.85326 C 54.839673 46.817934 52.948368 44.679347 48.160325 44.679347 C 45.736412 44.679347 43.96739 45.391303 42.866847 46.317934 Z M 58.480977 65.358694 C 60.380433 65.361412 61.918477 66.899455 61.921194 68.798912 L 61.921194 134.160323 C 61.918477 136.05978 60.380433 137.60054 58.480977 137.60054 L 37.839673 137.60054 C 35.940217 137.60054 34.399456 136.05978 34.399456 134.160323 L 34.399456 68.798912 C 34.399456 66.899455 35.940217 65.361412 37.839673 65.358694 Z M 89.440215 65.358694 C 91.339672 65.361412 92.880433 66.899455 92.880433 68.798912 L 92.880433 70.258151 C 96.701085 67.785325 102.203802 65.358694 109.43478 65.358694 C 117.043476 65.358694 124.23641 68.043477 129.410323 73.502716 C 134.581519 78.961955 137.60054 87.032607 137.60054 97.220107 L 137.60054 134.160323 C 137.60054 136.05978 136.05978 137.60054 134.160323 137.60054 L 113.519019 137.60054 C 111.619563 137.60054 110.081519 136.05978 110.078802 134.160323 L 110.078802 99.760867 C 110.078802 96.89402 109.32065 94.160324 107.964671 92.336954 C 106.605976 90.510868 104.80978 89.350541 101.418476 89.293476 C 98.130433 89.233694 96.402172 90.350541 95.029889 92.209237 C 93.657607 94.067933 92.880433 96.904889 92.880433 99.760867 L 92.880433 134.160323 C 92.880433 136.05978 91.339672 137.60054 89.440215 137.60054 L 68.798912 137.60054 C 66.899455 137.60054 65.361412 136.05978 65.358694 134.160323 L 65.358694 68.798912 C 65.361412 66.899455 66.899455 65.361412 68.798912 65.358694 Z M 41.27989 130.720106 L 55.04076 130.720106 L 55.04076 72.239129 L 41.27989 72.239129 Z M 72.239129 130.720106 L 85.999998 130.720106 L 85.999998 99.760867 C 85.999998 95.733694 86.975542 91.543476 89.494563 88.130433 C 92.010868 84.717389 96.304346 82.317933 101.540759 82.413042 C 106.749998 82.502716 110.975541 84.850542 113.48641 88.222824 C 115.99728 91.597824 116.959237 95.74728 116.959237 99.760867 L 116.959237 130.720106 L 130.720106 130.720106 L 130.720106 97.220107 C 130.720106 88.366846 128.198367 82.222824 124.418475 78.233694 C 120.638584 74.244564 115.467389 72.239129 109.43478 72.239129 C 97.589672 72.239129 92.187498 79.676629 92.187498 79.676629 C 91.298911 80.858694 89.752715 81.339672 88.350541 80.869563 C 86.94565 80.402172 85.999998 79.086955 85.999998 77.608694 L 85.999998 72.239129 L 72.239129 72.239129 Z M 72.239129 130.720106 " transform="matrix(1.4375,0,0,1.4375,1.375,1.375)"/>
<path style=" stroke:none;fill-rule:nonzero;fill:rgb(5.098039%,95.294118%,43.137255%);fill-opacity:1;" d="M 45.878906 21.15625 C 32.285156 21.15625 21.15625 32.285156 21.15625 45.878906 L 21.15625 204.121094 C 21.15625 217.714844 32.285156 228.84375 45.878906 228.84375 L 204.121094 228.84375 C 217.714844 228.84375 228.84375 217.714844 228.84375 204.121094 L 228.84375 45.878906 C 228.84375 32.285156 217.714844 21.15625 204.121094 21.15625 Z M 45.878906 31.046875 L 204.121094 31.046875 C 212.371094 31.046875 218.953125 37.628906 218.953125 45.878906 L 218.953125 204.121094 C 218.953125 212.371094 212.371094 218.953125 204.121094 218.953125 L 45.878906 218.953125 C 37.628906 218.953125 31.046875 212.371094 31.046875 204.121094 L 31.046875 45.878906 C 31.046875 37.628906 37.628906 31.046875 45.878906 31.046875 Z M 70.605469 55.828125 C 65.1875 55.828125 60.316406 57.445312 56.707031 60.484375 C 53.097656 63.519531 50.882812 68.054688 50.882812 72.914062 C 50.882812 82.148438 58.890625 89.34375 69.078125 90.054688 C 69.085938 90.058594 69.09375 90.0625 69.097656 90.066406 C 69.582031 90.230469 70.09375 90.320312 70.605469 90.328125 C 81.84375 90.328125 90.328125 82.453125 90.328125 72.914062 C 90.328125 72.828125 90.324219 72.738281 90.316406 72.652344 C 89.8125 63.257812 81.4375 55.828125 70.605469 55.828125 Z M 70.605469 65.601562 C 77.488281 65.601562 80.207031 68.675781 80.503906 73.039062 C 80.445312 77.273438 77.824219 80.554688 70.605469 80.554688 C 63.753906 80.554688 60.65625 77.042969 60.65625 72.914062 C 60.65625 70.847656 61.410156 69.292969 62.996094 67.957031 C 64.578125 66.625 67.121094 65.601562 70.605469 65.601562 Z M 55.769531 95.328125 C 53.039062 95.332031 50.824219 97.542969 50.824219 100.273438 L 50.824219 194.230469 C 50.824219 196.960938 53.039062 199.175781 55.769531 199.175781 L 85.441406 199.175781 C 88.171875 199.175781 90.382812 196.960938 90.386719 194.230469 L 90.386719 100.273438 C 90.382812 97.542969 88.171875 95.332031 85.441406 95.328125 Z M 100.273438 95.328125 C 97.542969 95.332031 95.332031 97.542969 95.328125 100.273438 L 95.328125 194.230469 C 95.332031 196.960938 97.542969 199.175781 100.273438 199.175781 L 129.945312 199.175781 C 132.675781 199.175781 134.890625 196.960938 134.890625 194.230469 L 134.890625 144.78125 C 134.890625 140.675781 136.007812 136.597656 137.980469 133.925781 C 139.953125 131.253906 142.4375 129.648438 147.164062 129.734375 C 152.039062 129.816406 154.621094 131.484375 156.574219 134.109375 C 158.523438 136.730469 159.613281 140.660156 159.613281 144.78125 L 159.613281 194.230469 C 159.617188 196.960938 161.828125 199.175781 164.558594 199.175781 L 194.230469 199.175781 C 196.960938 199.175781 199.175781 196.960938 199.175781 194.230469 L 199.175781 141.128906 C 199.175781 126.484375 194.835938 114.882812 187.402344 107.035156 C 179.964844 99.1875 169.625 95.328125 158.6875 95.328125 C 148.292969 95.328125 140.382812 98.816406 134.890625 102.371094 L 134.890625 100.273438 C 134.890625 97.542969 132.675781 95.332031 129.945312 95.328125 Z M 60.714844 105.21875 L 80.496094 105.21875 L 80.496094 189.285156 L 60.714844 189.285156 Z M 105.21875 105.21875 L 125 105.21875 L 125 112.9375 C 125 115.0625 126.359375 116.953125 128.378906 117.625 C 130.394531 118.300781 132.617188 117.609375 133.894531 115.910156 C 133.894531 115.910156 141.660156 105.21875 158.6875 105.21875 C 167.359375 105.21875 174.792969 108.101562 180.226562 113.835938 C 185.65625 119.570312 189.285156 128.402344 189.285156 141.128906 L 189.285156 189.285156 L 169.503906 189.285156 L 169.503906 144.78125 C 169.503906 139.011719 168.121094 133.046875 164.511719 128.195312 C 160.902344 123.347656 154.828125 119.972656 147.339844 119.84375 C 139.8125 119.707031 133.640625 123.15625 130.023438 128.0625 C 126.402344 132.96875 125 138.992188 125 144.78125 L 125 189.285156 L 105.21875 189.285156 Z M 105.21875 105.21875 "/>
</g>
</svg>
